<svg width="32" height="32" viewBox="0 0 32 32" fill="none" xmlns="http://www.w3.org/2000/svg">
<path d="M28.56 14.5626C28.7987 14.4573 29.0013 14.2843 29.1426 14.065C29.2839 13.8458 29.3578 13.5898 29.3551 13.329C29.3524 13.0681 29.2732 12.8137 29.1274 12.5974C28.9816 12.3811 28.7755 12.2123 28.5347 12.112L17.1067 6.90664C16.7593 6.74818 16.3819 6.66617 16 6.66617C15.6182 6.66617 15.2408 6.74818 14.8933 6.90664L3.46667 12.1066C3.2293 12.2106 3.02736 12.3815 2.88556 12.5984C2.74376 12.8153 2.66824 13.0688 2.66824 13.328C2.66824 13.5871 2.74376 13.8406 2.88556 14.0576C3.02736 14.2745 3.2293 14.4453 3.46667 14.5493L14.8933 19.76C15.2408 19.9184 15.6182 20.0005 16 20.0005C16.3819 20.0005 16.7593 19.9184 17.1067 19.76L28.56 14.5626Z" stroke="white" stroke-width="2.66667" stroke-linecap="round" stroke-linejoin="round"/>
<path d="M29.3333 13.3333V21.3333" stroke="white" stroke-width="2.66667" stroke-linecap="round" stroke-linejoin="round"/>
<path d="M8 16.6667V21.3333C8 22.3942 8.84286 23.4116 10.3431 24.1618C11.8434 24.9119 13.8783 25.3333 16 25.3333C18.1217 25.3333 20.1566 24.9119 21.6569 24.1618C23.1571 23.4116 24 22.3942 24 21.3333V16.6667" stroke="white" stroke-width="2.66667" stroke-linecap="round" stroke-linejoin="round"/>
</svg>
