<svg width="16" height="16" viewBox="0 0 16 16" fill="none" xmlns="http://www.w3.org/2000/svg">
<g clip-path="url(#clip0_8_173)">
<path d="M14.6667 7.99992H13.0134C12.722 7.9993 12.4385 8.09412 12.2061 8.2699C11.9738 8.44567 11.8054 8.69272 11.7267 8.97325L10.16 14.5466C10.1499 14.5812 10.1289 14.6116 10.1 14.6333C10.0712 14.6549 10.0361 14.6666 10 14.6666C9.96398 14.6666 9.92889 14.6549 9.90004 14.6333C9.87119 14.6116 9.85014 14.5812 9.84004 14.5466L6.16004 1.45325C6.14994 1.41863 6.12889 1.38822 6.10004 1.36659C6.07119 1.34495 6.0361 1.33325 6.00004 1.33325C5.96398 1.33325 5.92889 1.34495 5.90004 1.36659C5.87119 1.38822 5.85014 1.41863 5.84004 1.45325L4.27337 7.02658C4.19502 7.30602 4.02763 7.55226 3.79662 7.72793C3.56561 7.90359 3.28359 7.99909 2.99337 7.99992H1.33337" stroke="#0A0A0A" stroke-width="1.33333" stroke-linecap="round" stroke-linejoin="round"/>
</g>
<defs>
<clipPath id="clip0_8_173">
<rect width="16" height="16" fill="white"/>
</clipPath>
</defs>
</svg>
