<svg fill="#000000" width="13px" height="13px" viewBox="0 0 16.64 16.64" xmlns="http://www.w3.org/2000/svg"><path d="M13.169 15.774 10.4 12.497V6.753h0.346c0.287 0 0.52 -0.233 0.52 -0.52s-0.233 -0.52 -0.52 -0.52h-0.866c-0.287 0 -0.52 0.233 -0.52 0.52v6.465a0.519 0.519 0 0 0 0.134 0.348l2.118 2.557h-6.586l2.118 -2.557a0.519 0.519 0 0 0 0.134 -0.348V6.233c0 -0.287 -0.233 -0.52 -0.52 -0.52H5.893c-0.287 0 -0.52 0.233 -0.52 0.52s0.233 0.52 0.52 0.52h0.346v5.744l-2.769 3.277a0.521 0.521 0 0 0 -0.089 0.56 0.52 0.52 0 0 0 0.475 0.309h8.927a0.52 0.52 0 0 0 0.475 -0.309c0.083 -0.188 0.048 -0.407 -0.089 -0.56zM7.8 5.195c0.573 0 1.037 -0.465 1.037 -1.037 0 -0.572 -0.464 -1.037 -1.037 -1.037 -0.573 0 -1.037 0.465 -1.037 1.037 0 0.573 0.464 1.037 1.037 1.037m3.388 -1.544c1.013 0 1.835 -0.818 1.835 -1.827S12.202 -0.002 11.188 -0.002c-1.013 0 -1.835 0.818 -1.835 1.827s0.822 1.827 1.835 1.827m-0.008 -2.617c0.433 0 0.785 0.351 0.785 0.782 0 0.431 -0.352 0.782 -0.785 0.782s-0.785 -0.351 -0.785 -0.782c0 -0.431 0.352 -0.782 0.785 -0.782"/></svg>