<svg width="14px" height="14px" viewBox="0 0 17.92 17.92" class="icon" version="1.1" xmlns="http://www.w3.org/2000/svg"><path d="M16.52 1.484H1.4c-0.476 0 -0.84 0.364 -0.84 0.84v8.96c0 0.476 0.364 0.84 0.84 0.84h15.12c0.476 0 0.84 -0.364 0.84 -0.84v-8.96c0 -0.476 -0.364 -0.84 -0.84 -0.84" fill="#FFFFFF"/><path d="M1.68 2.604h14.56v8.4H1.68z" fill="#E8E8E8"/><path d="M4.508 15.792h8.904v0.644H4.508z" fill="#9DE8F7"/><path d="M6.86 12.684h4.2v2.548H6.86z" fill="#FFFFFF"/><path d="M16.52 0.924H1.4c-0.784 0 -1.4 0.616 -1.4 1.4v8.96c0 0.784 0.616 1.4 1.4 1.4h4.9v2.548H3.948v1.764h10.024V15.232H11.62V12.684h4.9c0.784 0 1.4 -0.616 1.4 -1.4v-8.96c0 -0.784 -0.616 -1.4 -1.4 -1.4M13.412 15.792v0.644H4.508v-0.644zm-6.552 -0.56V12.684h4.2v2.548zm10.5 -3.948c0 0.476 -0.364 0.84 -0.84 0.84H1.4c-0.476 0 -0.84 -0.364 -0.84 -0.84v-8.96c0 -0.476 0.364 -0.84 0.84 -0.84h15.12c0.476 0 0.84 0.364 0.84 0.84z" fill=""/><path d="m10.864 7.896 -1.708 -1.708 0.784 -0.784 -2.66 -0.448 0.448 2.66 0.84 -0.84 1.708 1.708z" fill="#FFFFFF"/><path d="m9.94 6.216 1.148 -1.148L6.58 4.284l0.784 4.508 1.204 -1.204 1.708 1.708 1.372 -1.372zm-2.212 1.4 -0.448 -2.66 2.66 0.448 -0.784 0.784 1.708 1.708 -0.588 0.588 -1.708 -1.708z" fill=""/></svg>