<svg version="1.1" id="Layer_1" xmlns="http://www.w3.org/2000/svg" xmlns:xlink="http://www.w3.org/1999/xlink" x="0px" y="0px" viewBox="0 0 13 13" style="enable-background:new 0 0 512.001 512.001;" xml:space="preserve" width="13" height="13"><g><path style="fill:#FFD782;" d="m12.795 6.488 -0.009 -4.616c-0.002 -0.923 -0.758 -1.677 -1.682 -1.675l-4.616 0.009 0.012 6.295z"/><path style="fill:#FFD782;" d="m6.488 0.205 -4.616 0.009C0.949 0.216 0.195 0.973 0.197 1.896l0.009 4.616 6.295 -0.012z"/></g><path style="fill:#D7DEED;" d="m6.5 6.5 0.012 6.295 4.616 -0.009c0.923 -0.002 1.677 -0.758 1.675 -1.682l-0.009 -4.616z"/><path style="fill:#FFD782;" d="m0.205 6.512 0.009 4.616c0.002 0.923 0.758 1.677 1.682 1.675l4.616 -0.009 -0.012 -6.295z"/><path d="M12.983 1.872C12.981 0.84 12.139 0 11.107 0L1.872 0.017C0.838 0.019 -0.002 0.862 0 1.896l0.017 9.232C0.019 12.16 0.861 13 1.893 13l9.236 -0.017c1.034 -0.002 1.874 -0.845 1.872 -1.879zm-1.855 10.717 -9.232 0.017h-0.003c-0.816 0 -1.48 -0.664 -1.482 -1.479l-0.017 -9.232C0.392 1.078 1.055 0.412 1.873 0.411l9.232 -0.017h0.003c0.816 0 1.48 0.664 1.482 1.479l0.017 9.232c0.002 0.817 -0.662 1.483 -1.479 1.485"/><path d="M11.955 6.293h0l-5.259 0.01 -0.01 -5.259a0.197 0.197 0 0 0 -0.197 -0.196h0a0.197 0.197 0 0 0 -0.196 0.197l0.01 5.259 -5.259 0.01a0.197 0.197 0 0 0 0 0.393h0l5.259 -0.01 0.01 5.259a0.197 0.197 0 0 0 0.197 0.196h0a0.197 0.197 0 0 0 0.196 -0.197l-0.01 -5.259 5.259 -0.01a0.197 0.197 0 0 0 0 -0.393"/><path d="M1.668 3.558h0l1.482 -0.003 0.003 1.482a0.197 0.197 0 0 0 0.197 0.196h0a0.197 0.197 0 0 0 0.196 -0.197l-0.003 -1.482 1.482 -0.003a0.197 0.197 0 0 0 0 -0.393h0l-1.482 0.003 -0.003 -1.482a0.197 0.197 0 0 0 -0.197 -0.196h0a0.197 0.197 0 0 0 -0.196 0.197l0.003 1.482 -1.482 0.003a0.197 0.197 0 0 0 0 0.393"/><path d="M7.963 3.547h0l3.357 -0.006a0.197 0.197 0 0 0 0 -0.393h0l-3.357 0.006a0.197 0.197 0 0 0 -0.196 0.197 0.197 0.197 0 0 0 0.197 0.196"/><path d="M11.332 9.442h0l-3.357 0.006a0.197 0.197 0 0 0 0 0.393h0l3.357 -0.006a0.197 0.197 0 0 0 0.196 -0.197 0.197 0.197 0 0 0 -0.197 -0.196"/><path d="m3.637 9.653 1.118 -1.122a0.197 0.197 0 0 0 -0.279 -0.278l-1.118 1.122 -1.122 -1.118a0.197 0.197 0 0 0 -0.278 0.279l1.122 1.118L1.963 10.776a0.197 0.197 0 0 0 0.139 0.336 0.196 0.196 0 0 0 0.139 -0.058l1.118 -1.122 1.122 1.118a0.196 0.196 0 0 0 0.139 0.057 0.197 0.197 0 0 0 0.139 -0.336z"/><path d="M9.652 8.999c0.34 -0.001 0.616 -0.278 0.615 -0.617 -0.001 -0.339 -0.277 -0.615 -0.617 -0.615a0.612 0.612 0 0 0 -0.435 0.181 0.612 0.612 0 0 0 -0.18 0.436c0.001 0.339 0.277 0.615 0.616 0.615zm-0.224 -0.616a0.221 0.221 0 0 1 0.065 -0.158 0.222 0.222 0 0 1 0.158 -0.066c0.123 0 0.223 0.1 0.223 0.223 0 0.123 -0.1 0.223 -0.223 0.223l0 0.197v-0.197c-0.123 0 -0.223 -0.1 -0.223 -0.223"/><path d="M9.654 10.284c-0.165 0 -0.319 0.065 -0.435 0.181a0.612 0.612 0 0 0 -0.18 0.436c0.001 0.339 0.277 0.615 0.616 0.615h0.001a0.612 0.612 0 0 0 0.435 -0.181 0.612 0.612 0 0 0 0.18 -0.436c-0.001 -0.339 -0.277 -0.615 -0.618 -0.615m0.159 0.774a0.221 0.221 0 0 1 -0.158 0.066l0 0.197v-0.197c-0.123 0 -0.223 -0.1 -0.223 -0.223a0.221 0.221 0 0 1 0.065 -0.158 0.222 0.222 0 0 1 0.158 -0.066c0.123 0 0.223 0.1 0.223 0.223a0.221 0.221 0 0 1 -0.065 0.158"/></svg>